<svg id="svg" version="1.1" width="400" height="382.05128205128204" viewBox="0 0 400 382.05128205128204" xmlns="http://www.w3.org/2000/svg" xmlns:xlink="http://www.w3.org/1999/xlink" ><g id="svgg"><path id="path0" d="M0.000 191.205 L 0.000 382.409 200.000 382.409 L 400.000 382.409 400.000 191.205 L 400.000 0.000 200.000 0.000 L 0.000 0.000 0.000 191.205 M215.186 9.779 C 217.602 10.577,219.320 10.823,224.283 11.079 C 229.154 11.331,231.025 11.594,233.461 12.366 C 235.143 12.899,237.639 13.531,239.006 13.769 C 255.498 16.639,291.839 33.367,303.471 43.442 C 304.748 44.549,307.330 46.482,309.207 47.739 C 311.919 49.554,315.461 52.877,326.456 63.922 L 340.293 77.820 348.965 90.822 C 357.890 104.202,361.174 110.019,363.105 115.870 C 363.695 117.658,364.859 120.583,365.690 122.371 C 367.764 126.831,372.717 141.644,373.625 146.103 C 374.034 148.113,374.714 150.759,375.135 151.983 C 375.627 153.412,375.981 155.730,376.126 158.462 C 376.288 161.534,376.665 163.785,377.482 166.567 L 378.614 170.418 378.504 188.173 C 378.395 205.726,378.384 205.953,377.503 208.222 C 376.778 210.087,376.549 211.680,376.276 216.733 C 376.013 221.599,375.735 223.598,374.999 225.928 C 374.482 227.566,373.864 230.017,373.627 231.374 C 371.790 241.892,361.010 268.894,355.466 276.864 C 354.369 278.442,352.509 281.541,351.334 283.752 C 350.155 285.968,348.079 289.080,346.706 290.689 C 345.337 292.294,343.407 294.874,342.417 296.421 C 341.371 298.057,338.279 301.637,335.031 304.971 C 331.958 308.126,328.595 311.838,327.558 313.219 C 326.522 314.601,324.543 316.579,323.162 317.616 C 321.780 318.652,318.069 322.007,314.914 325.071 C 304.559 335.126,277.882 351.196,264.092 355.686 C 262.178 356.310,258.940 357.599,256.897 358.552 C 254.708 359.572,251.802 360.567,249.822 360.974 C 247.974 361.354,245.317 362.020,243.916 362.454 C 242.515 362.888,240.278 363.436,238.945 363.672 C 237.611 363.909,235.143 364.534,233.461 365.062 C 231.366 365.719,228.894 366.125,225.621 366.350 C 222.218 366.583,219.984 366.960,217.863 367.660 L 214.885 368.642 197.514 368.642 L 180.144 368.642 177.166 367.652 C 174.737 366.844,173.059 366.604,168.069 366.347 C 163.164 366.094,161.341 365.838,158.877 365.052 C 157.187 364.513,154.520 363.824,152.950 363.521 C 141.025 361.221,106.780 346.915,98.509 340.778 C 97.478 340.014,95.551 338.700,94.226 337.859 C 83.407 330.990,82.855 330.518,67.085 314.651 L 52.142 299.618 43.375 286.440 C 34.446 273.019,31.070 267.070,29.481 261.950 C 28.992 260.373,27.769 257.275,26.764 255.067 C 24.618 250.350,22.010 242.529,21.409 239.006 C 21.175 237.639,20.027 233.681,18.856 230.210 C 16.757 223.984,16.724 223.822,16.432 217.941 C 16.180 212.897,15.968 211.488,15.046 208.764 L 13.958 205.545 13.958 188.719 L 13.958 171.893 15.046 168.674 C 15.968 165.950,16.180 164.540,16.432 159.496 C 16.724 153.616,16.757 153.454,18.856 147.228 C 20.027 143.757,21.175 139.799,21.409 138.432 C 22.132 134.192,25.229 125.479,27.950 120.027 C 29.381 117.161,31.012 113.375,31.575 111.614 C 33.349 106.066,43.624 89.376,48.832 83.584 C 49.776 82.534,51.637 80.033,52.967 78.027 C 56.356 72.915,78.817 50.512,83.748 47.325 C 85.535 46.169,88.109 44.251,89.466 43.062 C 90.823 41.872,92.716 40.449,93.672 39.898 C 94.629 39.347,96.530 38.080,97.897 37.082 C 107.064 30.389,140.416 16.358,152.950 13.921 C 154.520 13.616,157.187 12.925,158.877 12.386 C 161.341 11.600,163.164 11.343,168.069 11.091 C 173.053 10.834,174.719 10.595,177.055 9.803 L 179.924 8.830 196.066 8.813 L 212.208 8.795 215.186 9.779 " stroke="none" fill="#fbfbfb" fill-rule="evenodd"></path><path id="path1" d="M181.071 14.154 C 180.229 14.334,178.509 14.849,177.247 15.298 C 175.484 15.925,173.490 16.189,168.642 16.441 C 163.516 16.706,161.831 16.943,159.656 17.701 C 158.184 18.215,156.119 18.751,155.067 18.893 C 154.015 19.035,147.304 21.072,140.153 23.420 C 120.976 29.717,100.454 40.118,91.872 47.889 C 90.763 48.894,88.352 50.676,86.515 51.850 C 81.729 54.908,59.409 77.226,57.039 81.323 C 56.168 82.829,54.590 85.009,53.531 86.167 C 48.965 91.163,38.526 107.687,36.938 112.434 C 36.129 114.849,34.346 119.063,32.975 121.797 C 30.238 127.256,27.467 135.011,26.578 139.695 C 26.264 141.351,25.045 145.573,23.870 149.077 C 21.747 155.408,21.731 155.489,21.437 161.568 C 21.192 166.650,20.970 168.197,20.131 170.699 L 19.120 173.711 19.120 188.719 L 19.120 203.726 20.131 206.739 C 20.970 209.241,21.192 210.788,21.437 215.870 C 21.731 221.948,21.747 222.030,23.870 228.361 C 25.045 231.865,26.264 236.087,26.578 237.743 C 27.292 241.508,30.091 249.900,31.678 253.038 C 32.338 254.341,33.495 257.253,34.250 259.510 C 36.364 265.829,38.007 268.742,47.704 283.365 L 56.707 296.941 71.470 311.700 C 82.963 323.190,86.840 326.833,88.975 328.144 C 90.483 329.070,94.708 331.838,98.366 334.295 C 112.614 343.866,142.429 356.540,155.762 358.693 C 157.195 358.924,159.260 359.472,160.351 359.910 C 161.917 360.539,163.657 360.771,168.642 361.016 C 174.162 361.288,175.311 361.461,177.820 362.398 L 180.688 363.470 197.323 363.475 L 213.958 363.480 217.094 362.403 C 219.510 361.574,221.355 361.253,225.125 361.007 C 228.362 360.795,230.758 360.424,232.202 359.911 C 233.402 359.484,235.842 358.861,237.623 358.528 C 239.404 358.194,241.606 357.656,242.515 357.332 C 243.424 357.009,245.772 356.419,247.731 356.022 C 249.946 355.574,252.695 354.648,254.997 353.575 C 257.033 352.625,260.280 351.334,262.211 350.705 C 266.468 349.319,288.298 338.417,291.778 335.939 C 295.688 333.155,300.145 330.183,303.059 328.416 C 304.753 327.389,307.912 324.675,311.663 321.025 C 314.924 317.853,318.641 314.443,319.925 313.448 C 321.209 312.453,322.832 310.827,323.531 309.834 C 324.231 308.842,327.332 305.449,330.424 302.294 C 334.045 298.598,336.793 295.402,338.151 293.308 C 339.309 291.520,341.297 288.865,342.569 287.407 C 343.883 285.899,345.742 283.096,346.878 280.906 C 347.977 278.788,349.775 275.765,350.874 274.187 C 356.319 266.371,366.965 239.499,368.615 229.405 C 368.842 228.016,369.390 225.865,369.833 224.625 C 370.449 222.898,370.706 220.942,370.932 216.252 C 371.184 211.007,371.383 209.670,372.324 206.883 L 373.423 203.633 373.417 187.189 L 373.412 170.746 372.345 167.878 C 371.501 165.608,371.209 163.972,370.945 160.038 C 370.724 156.732,370.347 154.312,369.820 152.813 C 369.384 151.573,368.842 149.422,368.615 148.033 C 368.053 144.598,362.799 128.739,360.784 124.396 C 359.886 122.461,358.695 119.469,358.138 117.749 C 356.363 112.266,353.489 107.213,344.344 93.499 L 335.419 80.115 321.916 66.694 C 311.861 56.700,307.836 52.949,306.154 52.004 C 304.912 51.307,302.417 49.463,300.610 47.908 C 298.802 46.352,296.463 44.584,295.411 43.978 C 294.359 43.372,292.553 42.165,291.396 41.295 C 283.071 35.036,249.825 21.207,237.555 18.900 C 235.811 18.572,233.402 17.949,232.202 17.517 C 230.543 16.919,228.551 16.661,223.901 16.438 C 218.663 16.188,217.342 15.992,214.723 15.079 L 211.663 14.013 197.132 13.920 C 189.140 13.868,181.912 13.974,181.071 14.154 M215.976 22.683 C 218.352 23.483,220.356 23.833,224.007 24.085 C 227.250 24.309,229.637 24.691,231.166 25.232 C 232.428 25.678,234.788 26.298,236.411 26.609 C 238.033 26.921,240.098 27.440,241.000 27.764 C 241.901 28.087,244.329 28.678,246.394 29.077 C 248.902 29.561,251.443 30.396,254.042 31.590 C 256.183 32.573,259.430 33.863,261.257 34.457 C 265.169 35.729,282.541 44.339,285.851 46.647 C 287.113 47.526,289.350 49.029,290.822 49.985 C 292.294 50.941,294.532 52.624,295.793 53.725 C 297.055 54.825,299.379 56.548,300.956 57.552 C 303.097 58.916,307.101 62.635,316.758 72.232 L 329.692 85.086 336.818 95.793 C 340.738 101.683,344.601 107.402,345.402 108.502 C 347.341 111.165,349.190 114.958,350.483 118.929 C 351.065 120.717,352.129 123.354,352.846 124.790 C 354.525 128.152,360.118 144.776,360.625 147.914 C 360.839 149.238,361.448 151.647,361.979 153.268 C 362.662 155.354,363.037 157.612,363.263 161.002 C 363.506 164.648,363.844 166.563,364.678 169.033 L 365.774 172.275 365.774 188.719 L 365.774 205.163 364.678 208.405 C 363.844 210.875,363.506 212.790,363.263 216.436 C 363.037 219.826,362.662 222.084,361.979 224.170 C 361.448 225.791,360.838 228.200,360.622 229.524 C 359.213 238.174,349.492 263.245,345.307 269.025 C 344.241 270.497,342.403 273.552,341.224 275.814 C 339.929 278.296,338.020 281.176,336.408 283.080 C 334.939 284.814,332.835 287.610,331.733 289.293 C 329.306 292.997,301.934 320.430,298.990 322.107 C 297.476 322.970,290.311 327.725,285.086 331.334 C 276.519 337.251,248.682 349.000,238.871 350.840 C 237.157 351.161,234.723 351.797,233.461 352.253 C 231.673 352.899,229.816 353.148,225.048 353.380 C 219.790 353.637,218.499 353.830,215.870 354.755 L 212.811 355.832 196.367 355.832 L 179.924 355.832 176.673 354.742 C 173.911 353.816,172.503 353.606,167.304 353.347 C 162.670 353.115,160.643 352.848,158.949 352.245 C 157.718 351.807,155.309 351.185,153.595 350.863 C 140.195 348.342,117.127 337.813,100.000 326.400 L 90.440 320.029 76.740 306.382 C 64.701 294.388,62.701 292.225,60.231 288.528 C 58.686 286.214,57.004 283.719,56.494 282.983 C 45.899 267.690,33.859 241.407,31.706 228.872 C 31.453 227.400,30.832 224.990,30.326 223.518 C 29.670 221.613,29.306 219.408,29.061 215.870 C 28.796 212.053,28.468 210.188,27.648 207.839 L 26.580 204.780 26.580 188.719 L 26.580 172.658 27.648 169.598 C 28.468 167.250,28.796 165.384,29.061 161.568 C 29.306 158.030,29.670 155.825,30.326 153.920 C 30.832 152.447,31.453 150.038,31.706 148.566 C 33.858 136.036,46.047 109.436,56.500 94.455 C 57.014 93.719,58.554 91.396,59.922 89.293 C 63.456 83.859,85.494 61.632,91.013 57.934 C 93.011 56.596,95.846 54.467,97.312 53.204 C 98.778 51.941,101.531 50.096,103.430 49.105 C 105.329 48.114,108.776 46.051,111.090 44.523 C 115.960 41.304,126.429 36.053,130.932 34.571 C 132.638 34.009,135.856 32.723,138.082 31.713 C 140.650 30.547,143.346 29.648,145.459 29.252 C 147.291 28.909,149.721 28.308,150.860 27.916 C 151.999 27.524,154.358 26.936,156.102 26.609 C 157.846 26.282,160.306 25.645,161.568 25.195 C 163.143 24.633,165.366 24.281,168.657 24.074 C 171.821 23.875,174.265 23.498,175.842 22.967 C 180.128 21.523,180.891 21.471,196.941 21.545 L 212.811 21.617 215.976 22.683 M130.527 99.692 C 129.147 99.961,127.782 101.645,127.536 103.380 C 126.864 108.116,127.532 264.816,128.228 265.841 C 129.492 267.703,129.136 267.686,167.124 267.686 L 202.968 267.686 208.996 266.166 C 212.453 265.295,216.509 264.540,218.506 264.396 C 221.031 264.215,222.935 263.799,225.430 262.883 C 227.323 262.189,230.765 261.026,233.078 260.300 C 253.844 253.785,272.540 233.722,279.113 210.899 C 284.920 190.733,285.276 173.313,280.279 153.835 C 275.716 136.052,263.939 119.523,251.350 113.235 C 250.042 112.581,247.633 111.252,245.996 110.282 C 242.378 108.135,237.699 106.307,233.024 105.213 C 231.101 104.763,228.434 103.988,227.096 103.492 C 225.335 102.839,223.493 102.526,220.407 102.358 C 218.065 102.231,215.312 101.937,214.289 101.705 C 213.265 101.473,210.057 100.866,207.160 100.355 L 201.891 99.426 166.624 99.478 C 147.228 99.507,130.984 99.603,130.527 99.692 M205.736 138.207 C 219.548 142.794,231.391 156.548,233.096 169.981 C 233.389 172.294,233.891 175.134,234.210 176.291 C 234.942 178.945,234.941 183.771,234.207 186.998 C 233.897 188.365,233.474 191.659,233.269 194.318 C 232.122 209.148,221.174 223.526,207.557 228.088 C 206.030 228.599,203.834 229.366,202.677 229.792 C 200.398 230.631,181.087 230.616,177.720 229.774 C 175.738 229.277,173.710 227.400,173.230 225.616 C 172.355 222.367,172.922 141.323,173.829 140.109 C 176.100 137.067,176.833 136.934,190.822 137.040 L 202.486 137.128 205.736 138.207 " stroke="none" fill="#bc840c" fill-rule="evenodd"></path><path id="path2" d="M178.585 28.138 C 176.588 28.801,174.208 29.203,170.746 29.462 C 167.355 29.716,164.862 30.132,162.906 30.769 C 161.329 31.283,158.960 31.892,157.642 32.122 C 156.323 32.353,154.184 32.880,152.887 33.294 C 151.590 33.708,148.968 34.366,147.060 34.756 C 145.051 35.167,141.982 36.192,139.769 37.194 C 137.666 38.144,134.742 39.310,133.270 39.783 C 129.654 40.945,116.811 47.364,114.113 49.358 C 112.917 50.241,110.059 51.961,107.762 53.179 C 103.335 55.527,102.252 56.266,98.774 59.310 C 97.573 60.361,95.637 61.755,94.471 62.409 C 91.095 64.303,67.451 87.970,64.938 91.969 C 62.729 95.486,59.739 99.968,57.030 103.824 C 50.699 112.835,39.213 139.622,37.256 149.939 C 36.942 151.593,36.331 154.025,35.898 155.345 C 35.417 156.811,34.974 159.622,34.758 162.574 C 34.496 166.159,34.111 168.320,33.264 170.955 L 32.122 174.506 32.122 188.719 L 32.122 202.932 33.264 206.483 C 34.111 209.118,34.496 211.279,34.758 214.864 C 34.974 217.816,35.417 220.627,35.898 222.093 C 36.331 223.413,36.942 225.845,37.256 227.498 C 39.215 237.827,50.723 264.657,57.036 273.614 C 59.317 276.851,62.262 281.286,64.748 285.226 C 66.170 287.481,69.653 291.220,80.044 301.649 L 93.499 315.154 102.868 321.411 C 119.535 332.542,142.916 343.235,155.258 345.371 C 156.625 345.608,159.034 346.224,160.612 346.740 C 162.892 347.487,164.735 347.744,169.598 347.993 C 174.592 348.249,176.265 348.488,178.695 349.296 L 181.673 350.287 196.176 350.287 L 210.678 350.287 213.657 349.305 C 216.073 348.509,217.808 348.263,222.851 347.998 C 227.856 347.735,229.643 347.483,232.028 346.703 C 233.658 346.170,236.109 345.541,237.476 345.306 C 249.663 343.206,272.519 332.796,289.293 321.704 L 298.853 315.382 312.091 302.146 C 323.152 291.087,325.691 288.344,327.529 285.468 C 328.739 283.576,330.447 281.252,331.324 280.306 C 333.461 278.000,334.919 275.789,336.870 271.895 C 337.766 270.109,339.324 267.527,340.333 266.159 C 344.613 260.357,352.792 238.881,355.432 226.515 C 355.933 224.168,356.554 221.852,356.812 221.370 C 357.070 220.888,357.424 218.335,357.599 215.696 C 357.774 213.058,358.163 210.038,358.464 208.987 C 358.765 207.935,359.283 206.128,359.616 204.971 C 360.118 203.223,360.220 200.479,360.220 188.719 C 360.220 176.959,360.118 174.215,359.616 172.467 C 359.283 171.310,358.765 169.503,358.464 168.451 C 358.163 167.400,357.774 164.380,357.599 161.742 C 357.424 159.103,357.070 156.550,356.812 156.068 C 356.554 155.586,355.935 153.270,355.436 150.923 C 354.347 145.792,349.650 131.509,347.632 127.191 C 346.836 125.486,345.634 122.473,344.963 120.495 C 343.444 116.023,342.644 114.426,340.348 111.281 C 339.351 109.914,338.316 108.365,338.050 107.839 C 337.784 107.314,336.545 105.421,335.297 103.633 C 334.048 101.845,331.287 97.715,329.160 94.455 C 324.232 86.900,304.489 66.584,298.123 62.515 C 296.249 61.318,293.926 59.603,292.960 58.705 C 287.574 53.694,267.228 42.278,259.273 39.802 C 257.696 39.311,254.598 38.088,252.390 37.085 C 249.861 35.937,247.155 35.034,245.081 34.646 C 243.270 34.307,240.825 33.698,239.648 33.293 C 238.471 32.888,236.062 32.286,234.295 31.955 C 232.527 31.624,230.095 31.013,228.890 30.599 C 227.528 30.130,224.795 29.706,221.667 29.478 C 217.999 29.210,215.865 28.845,213.795 28.131 L 210.956 27.151 196.205 27.168 C 181.529 27.185,181.438 27.190,178.585 28.138 M210.134 94.095 C 213.078 94.316,216.986 94.823,218.818 95.221 C 220.650 95.618,223.575 96.133,225.319 96.364 C 232.451 97.309,244.285 101.246,249.229 104.319 C 250.863 105.334,252.801 106.398,253.537 106.684 C 271.073 113.498,284.913 134.252,290.136 161.568 C 290.931 165.728,291.285 188.601,290.651 194.929 C 286.777 233.629,260.031 263.062,221.606 270.909 C 219.082 271.424,215.813 272.148,214.340 272.517 C 211.038 273.345,131.671 273.820,127.887 273.034 C 125.057 272.447,123.509 271.295,122.275 268.860 L 121.224 266.784 121.227 183.583 L 121.231 100.382 122.139 98.432 C 123.349 95.833,125.263 94.560,128.872 93.955 C 131.069 93.586,205.054 93.714,210.134 94.095 M180.193 143.039 C 178.163 143.854,178.203 143.061,178.203 183.305 C 178.203 203.792,178.308 221.080,178.436 221.723 C 178.982 224.451,179.076 224.474,189.561 224.474 L 198.977 224.474 203.026 223.098 C 218.263 217.919,225.945 207.637,227.913 189.788 C 230.621 165.229,221.286 148.955,201.625 143.960 C 196.226 142.588,182.759 142.010,180.193 143.039 " stroke="none" fill="#fcec6c" fill-rule="evenodd"></path><path id="path3" d="M177.055 9.803 C 174.719 10.595,173.053 10.834,168.069 11.091 C 163.164 11.343,161.341 11.600,158.877 12.386 C 157.187 12.925,154.520 13.616,152.950 13.921 C 140.416 16.358,107.064 30.389,97.897 37.082 C 96.530 38.080,94.629 39.347,93.672 39.898 C 92.716 40.449,90.823 41.872,89.466 43.062 C 88.109 44.251,85.535 46.169,83.748 47.325 C 78.817 50.512,56.356 72.915,52.967 78.027 C 51.637 80.033,49.776 82.534,48.832 83.584 C 43.624 89.376,33.349 106.066,31.575 111.614 C 31.012 113.375,29.381 117.161,27.950 120.027 C 25.229 125.479,22.132 134.192,21.409 138.432 C 21.175 139.799,20.027 143.757,18.856 147.228 C 16.757 153.454,16.724 153.616,16.432 159.496 C 16.180 164.540,15.968 165.950,15.046 168.674 L 13.958 171.893 13.958 188.719 L 13.958 205.545 15.046 208.764 C 15.968 211.488,16.180 212.897,16.432 217.941 C 16.724 223.822,16.757 223.984,18.856 230.210 C 20.027 233.681,21.175 237.639,21.409 239.006 C 22.010 242.529,24.618 250.350,26.764 255.067 C 27.769 257.275,28.992 260.373,29.481 261.950 C 31.070 267.070,34.446 273.019,43.375 286.440 L 52.142 299.618 67.085 314.651 C 82.855 330.518,83.407 330.990,94.226 337.859 C 95.551 338.700,97.478 340.014,98.509 340.778 C 106.780 346.915,141.025 361.221,152.950 363.521 C 154.520 363.824,157.187 364.513,158.877 365.052 C 161.341 365.838,163.164 366.094,168.069 366.347 C 173.059 366.604,174.737 366.844,177.166 367.652 L 180.144 368.642 197.514 368.642 L 214.885 368.642 217.863 367.660 C 219.984 366.960,222.218 366.583,225.621 366.350 C 228.894 366.125,231.366 365.719,233.461 365.062 C 235.143 364.534,237.611 363.909,238.945 363.672 C 240.278 363.436,242.515 362.888,243.916 362.454 C 245.317 362.020,247.974 361.354,249.822 360.974 C 251.802 360.567,254.708 359.572,256.897 358.552 C 258.940 357.599,262.178 356.310,264.092 355.686 C 277.882 351.196,304.559 335.126,314.914 325.071 C 318.069 322.007,321.780 318.652,323.162 317.616 C 324.543 316.579,326.522 314.601,327.558 313.219 C 328.595 311.838,331.958 308.126,335.031 304.971 C 338.279 301.637,341.371 298.057,342.417 296.421 C 343.407 294.874,345.337 292.294,346.706 290.689 C 348.079 289.080,350.155 285.968,351.334 283.752 C 352.509 281.541,354.369 278.442,355.466 276.864 C 361.010 268.894,371.790 241.892,373.627 231.374 C 373.864 230.017,374.482 227.566,374.999 225.928 C 375.735 223.598,376.013 221.599,376.276 216.733 C 376.549 211.680,376.778 210.087,377.503 208.222 C 378.384 205.953,378.395 205.726,378.504 188.173 L 378.614 170.418 377.482 166.567 C 376.665 163.785,376.288 161.534,376.126 158.462 C 375.981 155.730,375.627 153.412,375.135 151.983 C 374.714 150.759,374.034 148.113,373.625 146.103 C 372.717 141.644,367.764 126.831,365.690 122.371 C 364.859 120.583,363.695 117.658,363.105 115.870 C 361.174 110.019,357.890 104.202,348.965 90.822 L 340.293 77.820 326.456 63.922 C 315.461 52.877,311.919 49.554,309.207 47.739 C 307.330 46.482,304.748 44.549,303.471 43.442 C 291.839 33.367,255.498 16.639,239.006 13.769 C 237.639 13.531,235.143 12.899,233.461 12.366 C 231.025 11.594,229.154 11.331,224.283 11.079 C 219.320 10.823,217.602 10.577,215.186 9.779 L 212.208 8.795 196.066 8.813 L 179.924 8.830 177.055 9.803 M215.488 12.378 C 218.112 13.301,219.416 13.497,224.665 13.756 C 229.284 13.984,231.319 14.251,232.967 14.842 C 234.167 15.274,236.576 15.895,238.320 16.224 C 255.715 19.501,290.686 35.603,302.294 45.679 C 303.556 46.775,306.052 48.634,307.839 49.812 C 312.446 52.846,338.284 78.813,340.655 82.792 C 341.532 84.264,342.918 86.415,343.735 87.572 C 353.342 101.182,358.617 110.287,361.016 117.400 C 361.690 119.398,362.800 122.151,363.484 123.518 C 365.015 126.578,370.746 143.855,371.319 147.139 C 371.549 148.457,372.092 150.608,372.526 151.919 C 373.031 153.449,373.422 156.014,373.617 159.082 C 373.848 162.737,374.176 164.627,375.010 167.113 L 376.099 170.363 376.099 187.572 L 376.099 204.780 374.996 207.839 C 374.030 210.520,373.859 211.655,373.613 217.017 C 373.402 221.630,373.137 223.722,372.536 225.519 C 372.097 226.830,371.550 228.981,371.320 230.299 C 369.487 240.807,359.373 266.359,353.573 275.132 C 352.040 277.452,349.975 280.899,348.984 282.792 C 347.993 284.685,345.891 287.782,344.312 289.675 C 342.733 291.568,340.903 294.063,340.245 295.220 C 339.564 296.419,336.649 299.790,333.468 303.059 C 330.399 306.214,326.973 309.960,325.855 311.384 C 324.737 312.808,322.765 314.778,321.471 315.762 C 320.178 316.746,316.625 319.991,313.576 322.973 C 303.450 332.872,277.929 348.218,262.855 353.472 C 260.780 354.195,257.479 355.509,255.520 356.392 C 253.516 357.296,250.421 358.309,248.445 358.710 C 246.514 359.101,244.189 359.686,243.280 360.009 C 242.371 360.333,240.169 360.871,238.388 361.205 C 236.607 361.538,234.167 362.160,232.967 362.586 C 231.561 363.084,229.068 363.479,225.965 363.695 C 222.402 363.943,220.310 364.307,217.935 365.093 L 214.723 366.157 197.514 366.157 L 180.306 366.157 177.055 365.072 C 174.299 364.152,172.874 363.941,167.686 363.683 C 163.017 363.451,161.038 363.189,159.331 362.577 C 158.101 362.135,155.703 361.510,154.003 361.188 C 138.421 358.232,111.548 346.392,93.881 334.700 L 84.321 328.373 69.004 313.039 C 57.457 301.480,53.320 297.094,52.197 295.220 C 51.378 293.853,50.047 291.788,49.240 290.631 C 39.064 276.044,33.833 267.120,31.684 260.685 C 31.038 258.752,29.767 255.535,28.858 253.537 C 26.936 249.309,24.259 241.190,23.877 238.432 C 23.731 237.380,22.583 233.423,21.324 229.637 C 19.040 222.766,19.036 222.742,18.726 216.635 C 18.460 211.384,18.263 210.083,17.334 207.457 L 16.252 204.398 16.252 188.719 L 16.252 173.040 17.334 169.981 C 18.263 167.355,18.460 166.054,18.726 160.803 C 19.036 154.696,19.040 154.672,21.324 147.801 C 22.583 144.015,23.730 140.057,23.875 139.006 C 24.323 135.741,27.509 126.616,29.813 121.998 C 32.010 117.594,32.977 115.281,34.993 109.600 C 36.166 106.294,47.538 88.659,50.723 85.205 C 51.633 84.219,53.346 81.895,54.529 80.042 C 57.610 75.219,80.057 52.719,84.895 49.605 C 86.683 48.454,89.126 46.647,90.325 45.590 C 101.526 35.709,136.599 19.552,154.022 16.246 C 155.712 15.926,158.101 15.303,159.331 14.861 C 161.038 14.249,163.017 13.987,167.686 13.755 C 172.559 13.513,174.428 13.255,176.864 12.488 C 181.223 11.117,180.395 11.168,197.132 11.238 L 212.428 11.301 215.488 12.378 M180.880 23.700 C 179.933 23.870,178.040 24.391,176.673 24.856 C 174.974 25.435,172.674 25.798,169.407 26.003 C 166.163 26.207,163.890 26.565,162.333 27.115 C 161.071 27.561,158.602 28.196,156.846 28.525 C 155.090 28.854,152.939 29.380,152.066 29.695 C 151.193 30.009,148.574 30.665,146.248 31.153 C 143.592 31.710,141.029 32.537,139.364 33.375 C 137.905 34.108,134.646 35.438,132.122 36.330 C 126.329 38.377,116.828 43.121,111.855 46.451 C 109.751 47.859,106.396 49.852,104.398 50.879 C 102.262 51.976,99.677 53.711,98.126 55.088 C 96.675 56.377,94.007 58.378,92.199 59.536 C 89.533 61.243,86.587 63.969,76.643 73.937 L 64.375 86.233 58.162 95.568 C 46.934 112.436,35.733 136.913,33.646 149.140 C 33.412 150.507,32.796 152.985,32.277 154.648 C 31.634 156.707,31.259 159.022,31.100 161.913 C 30.932 164.966,30.560 167.162,29.774 169.741 L 28.681 173.325 28.681 188.719 L 28.681 204.112 29.774 207.697 C 30.560 210.276,30.932 212.471,31.100 215.524 C 31.259 218.416,31.634 220.731,32.277 222.790 C 32.796 224.453,33.412 226.931,33.646 228.298 C 35.732 240.522,46.933 264.998,58.161 281.869 L 64.373 291.205 77.980 304.808 L 91.587 318.411 101.147 324.746 C 118.262 336.087,141.010 346.447,154.243 348.926 C 156.005 349.257,158.460 349.889,159.699 350.331 C 161.423 350.946,163.382 351.203,168.069 351.429 C 173.314 351.681,174.651 351.880,177.438 352.821 L 180.688 353.920 196.367 353.920 L 212.046 353.920 215.105 352.838 C 217.741 351.906,219.012 351.714,224.283 351.457 C 229.021 351.225,230.919 350.972,232.696 350.335 C 233.958 349.882,236.392 349.249,238.106 348.928 C 251.360 346.442,274.446 335.927,291.435 324.638 L 300.765 318.438 314.274 305.013 C 325.432 293.923,328.205 290.955,330.204 287.954 C 331.536 285.956,333.662 283.129,334.928 281.671 C 336.210 280.197,338.123 277.312,339.240 275.170 C 340.344 273.052,342.361 269.685,343.722 267.686 C 348.256 261.031,356.713 238.892,358.892 227.979 C 359.242 226.226,359.871 223.816,360.291 222.625 C 360.784 221.223,361.162 218.770,361.362 215.671 C 361.598 212.006,361.927 210.123,362.764 207.640 L 363.857 204.398 363.857 188.719 L 363.857 173.040 362.764 169.797 C 361.927 167.315,361.598 165.431,361.362 161.767 C 361.162 158.668,360.784 156.215,360.291 154.813 C 359.871 153.621,359.241 151.212,358.890 149.459 C 358.047 145.246,352.813 129.354,351.219 126.166 C 350.528 124.783,349.365 121.943,348.636 119.856 C 347.906 117.769,347.087 115.545,346.816 114.914 C 346.544 114.283,342.148 107.486,337.047 99.809 L 327.771 85.851 315.606 73.758 C 306.153 64.360,302.675 61.155,300.000 59.374 C 298.107 58.114,295.698 56.317,294.646 55.380 C 288.927 50.289,268.805 39.079,260.460 36.335 C 258.651 35.740,255.449 34.475,253.346 33.524 C 251.176 32.542,248.199 31.542,246.463 31.211 C 244.780 30.890,242.027 30.214,240.344 29.708 C 238.662 29.202,236.466 28.667,235.465 28.519 C 234.464 28.371,232.399 27.822,230.876 27.298 C 228.871 26.608,226.735 26.251,223.136 26.001 C 219.359 25.740,217.429 25.404,215.105 24.602 L 212.046 23.547 197.323 23.468 C 189.226 23.425,181.826 23.529,180.880 23.700 M213.795 28.131 C 215.865 28.845,217.999 29.210,221.667 29.478 C 224.795 29.706,227.528 30.130,228.890 30.599 C 230.095 31.013,232.527 31.624,234.295 31.955 C 236.062 32.286,238.471 32.888,239.648 33.293 C 240.825 33.698,243.270 34.307,245.081 34.646 C 247.155 35.034,249.861 35.937,252.390 37.085 C 254.598 38.088,257.696 39.311,259.273 39.802 C 267.228 42.278,287.574 53.694,292.960 58.705 C 293.926 59.603,296.249 61.318,298.123 62.515 C 304.489 66.584,324.232 86.900,329.160 94.455 C 331.287 97.715,334.048 101.845,335.297 103.633 C 336.545 105.421,337.784 107.314,338.050 107.839 C 338.316 108.365,339.351 109.914,340.348 111.281 C 342.644 114.426,343.444 116.023,344.963 120.495 C 345.634 122.473,346.836 125.486,347.632 127.191 C 349.650 131.509,354.347 145.792,355.436 150.923 C 355.935 153.270,356.554 155.586,356.812 156.068 C 357.070 156.550,357.424 159.103,357.599 161.742 C 357.774 164.380,358.163 167.400,358.464 168.451 C 358.765 169.503,359.283 171.310,359.616 172.467 C 360.118 174.215,360.220 176.959,360.220 188.719 C 360.220 200.479,360.118 203.223,359.616 204.971 C 359.283 206.128,358.765 207.935,358.464 208.987 C 358.163 210.038,357.774 213.058,357.599 215.696 C 357.424 218.335,357.070 220.888,356.812 221.370 C 356.554 221.852,355.933 224.168,355.432 226.515 C 352.792 238.881,344.613 260.357,340.333 266.159 C 339.324 267.527,337.766 270.109,336.870 271.895 C 334.919 275.789,333.461 278.000,331.324 280.306 C 330.447 281.252,328.739 283.576,327.529 285.468 C 325.691 288.344,323.152 291.087,312.091 302.146 L 298.853 315.382 289.293 321.704 C 272.519 332.796,249.663 343.206,237.476 345.306 C 236.109 345.541,233.658 346.170,232.028 346.703 C 229.643 347.483,227.856 347.735,222.851 347.998 C 217.808 348.263,216.073 348.509,213.657 349.305 L 210.678 350.287 196.176 350.287 L 181.673 350.287 178.695 349.296 C 176.265 348.488,174.592 348.249,169.598 347.993 C 164.735 347.744,162.892 347.487,160.612 346.740 C 159.034 346.224,156.625 345.608,155.258 345.371 C 142.916 343.235,119.535 332.542,102.868 321.411 L 93.499 315.154 80.044 301.649 C 69.653 291.220,66.170 287.481,64.748 285.226 C 62.262 281.286,59.317 276.851,57.036 273.614 C 50.723 264.657,39.215 237.827,37.256 227.498 C 36.942 225.845,36.331 223.413,35.898 222.093 C 35.417 220.627,34.974 217.816,34.758 214.864 C 34.496 211.279,34.111 209.118,33.264 206.483 L 32.122 202.932 32.122 188.719 L 32.122 174.506 33.264 170.955 C 34.111 168.320,34.496 166.159,34.758 162.574 C 34.974 159.622,35.417 156.811,35.898 155.345 C 36.331 154.025,36.942 151.593,37.256 149.939 C 39.213 139.622,50.699 112.835,57.030 103.824 C 59.739 99.968,62.729 95.486,64.938 91.969 C 67.451 87.970,91.095 64.303,94.471 62.409 C 95.637 61.755,97.573 60.361,98.774 59.310 C 102.252 56.266,103.335 55.527,107.762 53.179 C 110.059 51.961,112.917 50.241,114.113 49.358 C 116.811 47.364,129.654 40.945,133.270 39.783 C 134.742 39.310,137.666 38.144,139.769 37.194 C 141.982 36.192,145.051 35.167,147.060 34.756 C 148.968 34.366,151.590 33.708,152.887 33.294 C 154.184 32.880,156.323 32.353,157.642 32.122 C 158.960 31.892,161.329 31.283,162.906 30.769 C 164.862 30.132,167.355 29.716,170.746 29.462 C 174.208 29.203,176.588 28.801,178.585 28.138 C 181.438 27.190,181.529 27.185,196.205 27.168 L 210.956 27.151 213.795 28.131 M128.872 93.955 C 125.263 94.560,123.349 95.833,122.139 98.432 L 121.231 100.382 121.227 183.583 L 121.224 266.784 122.275 268.860 C 123.509 271.295,125.057 272.447,127.887 273.034 C 131.671 273.820,211.038 273.345,214.340 272.517 C 215.813 272.148,219.082 271.424,221.606 270.909 C 260.031 263.062,286.777 233.629,290.651 194.929 C 291.285 188.601,290.931 165.728,290.136 161.568 C 284.913 134.252,271.073 113.498,253.537 106.684 C 252.801 106.398,250.863 105.334,249.229 104.319 C 244.285 101.246,232.451 97.309,225.319 96.364 C 223.575 96.133,220.650 95.618,218.818 95.221 C 212.659 93.883,206.001 93.692,167.304 93.744 C 146.692 93.772,129.398 93.867,128.872 93.955 M215.105 98.584 C 217.419 99.038,220.860 99.587,222.753 99.805 C 230.167 100.658,242.455 104.579,247.173 107.597 C 248.327 108.335,251.221 109.881,253.603 111.032 C 271.262 119.564,284.288 141.796,286.799 167.686 C 290.698 207.902,276.660 239.920,247.645 256.988 C 239.344 261.872,228.745 265.857,220.650 267.139 C 218.862 267.422,215.765 268.006,213.767 268.438 C 207.440 269.804,199.737 270.030,163.862 269.907 C 125.359 269.774,127.794 269.976,126.080 266.773 L 125.239 265.201 125.122 186.424 C 124.983 93.434,124.729 100.092,128.497 98.176 C 130.755 97.028,209.057 97.396,215.105 98.584 M180.115 139.079 C 177.909 139.449,176.635 140.088,175.819 141.232 L 174.952 142.447 174.952 183.573 C 174.952 229.395,174.746 225.905,177.537 227.430 C 179.138 228.305,196.904 228.672,200.382 227.902 C 215.539 224.549,227.665 212.639,230.737 198.088 C 236.813 169.309,226.494 146.829,204.338 140.575 C 198.761 139.001,185.472 138.180,180.115 139.079 M201.625 143.960 C 221.286 148.955,230.621 165.229,227.913 189.788 C 225.945 207.637,218.263 217.919,203.026 223.098 L 198.977 224.474 189.561 224.474 C 179.076 224.474,178.982 224.451,178.436 221.723 C 177.877 218.927,178.183 146.104,178.759 144.724 C 179.553 142.823,180.198 142.690,188.748 142.663 C 196.283 142.639,196.523 142.663,201.625 143.960 " stroke="none" fill="#fcdc6c" fill-rule="evenodd"></path><path id="path4" d="M180.880 11.350 C 180.354 11.447,178.547 11.959,176.864 12.488 C 174.428 13.255,172.559 13.513,167.686 13.755 C 163.017 13.987,161.038 14.249,159.331 14.861 C 158.101 15.303,155.712 15.926,154.022 16.246 C 136.599 19.552,101.526 35.709,90.325 45.590 C 89.126 46.647,86.683 48.454,84.895 49.605 C 80.057 52.719,57.610 75.219,54.529 80.042 C 53.346 81.895,51.633 84.219,50.723 85.205 C 47.538 88.659,36.166 106.294,34.993 109.600 C 32.977 115.281,32.010 117.594,29.813 121.998 C 27.509 126.616,24.323 135.741,23.875 139.006 C 23.730 140.057,22.583 144.015,21.324 147.801 C 19.040 154.672,19.036 154.696,18.726 160.803 C 18.460 166.054,18.263 167.355,17.334 169.981 L 16.252 173.040 16.252 188.719 L 16.252 204.398 17.334 207.457 C 18.263 210.083,18.460 211.384,18.726 216.635 C 19.036 222.742,19.040 222.766,21.324 229.637 C 22.583 233.423,23.731 237.380,23.877 238.432 C 24.259 241.190,26.936 249.309,28.858 253.537 C 29.767 255.535,31.038 258.752,31.684 260.685 C 33.833 267.120,39.064 276.044,49.240 290.631 C 50.047 291.788,51.378 293.853,52.197 295.220 C 53.320 297.094,57.457 301.480,69.004 313.039 L 84.321 328.373 93.881 334.700 C 111.548 346.392,138.421 358.232,154.003 361.188 C 155.703 361.510,158.101 362.135,159.331 362.577 C 161.038 363.189,163.017 363.451,167.686 363.683 C 172.874 363.941,174.299 364.152,177.055 365.072 L 180.306 366.157 197.514 366.157 L 214.723 366.157 217.935 365.093 C 220.310 364.307,222.402 363.943,225.965 363.695 C 229.068 363.479,231.561 363.084,232.967 362.586 C 234.167 362.160,236.607 361.538,238.388 361.205 C 240.169 360.871,242.371 360.333,243.280 360.009 C 244.189 359.686,246.514 359.101,248.445 358.710 C 250.421 358.309,253.516 357.296,255.520 356.392 C 257.479 355.509,260.780 354.195,262.855 353.472 C 277.929 348.218,303.450 332.872,313.576 322.973 C 316.625 319.991,320.178 316.746,321.471 315.762 C 322.765 314.778,324.737 312.808,325.855 311.384 C 326.973 309.960,330.399 306.214,333.468 303.059 C 336.649 299.790,339.564 296.419,340.245 295.220 C 340.903 294.063,342.733 291.568,344.312 289.675 C 345.891 287.782,347.993 284.685,348.984 282.792 C 349.975 280.899,352.040 277.452,353.573 275.132 C 359.373 266.359,369.487 240.807,371.320 230.299 C 371.550 228.981,372.097 226.830,372.536 225.519 C 373.137 223.722,373.402 221.630,373.613 217.017 C 373.859 211.655,374.030 210.520,374.996 207.839 L 376.099 204.780 376.099 187.572 L 376.099 170.363 375.010 167.113 C 374.176 164.627,373.848 162.737,373.617 159.082 C 373.422 156.014,373.031 153.449,372.526 151.919 C 372.092 150.608,371.549 148.457,371.319 147.139 C 370.746 143.855,365.015 126.578,363.484 123.518 C 362.800 122.151,361.690 119.398,361.016 117.400 C 358.617 110.287,353.342 101.182,343.735 87.572 C 342.918 86.415,341.532 84.264,340.655 82.792 C 338.284 78.813,312.446 52.846,307.839 49.812 C 306.052 48.634,303.556 46.775,302.294 45.679 C 290.686 35.603,255.715 19.501,238.320 16.224 C 236.576 15.895,234.167 15.274,232.967 14.842 C 231.319 14.251,229.284 13.984,224.665 13.756 C 219.416 13.497,218.112 13.301,215.488 12.378 L 212.428 11.301 197.132 11.238 C 188.719 11.203,181.405 11.253,180.880 11.350 M214.723 15.079 C 217.342 15.992,218.663 16.188,223.901 16.438 C 228.551 16.661,230.543 16.919,232.202 17.517 C 233.402 17.949,235.811 18.572,237.555 18.900 C 249.825 21.207,283.071 35.036,291.396 41.295 C 292.553 42.165,294.359 43.372,295.411 43.978 C 296.463 44.584,298.802 46.352,300.610 47.908 C 302.417 49.463,304.912 51.307,306.154 52.004 C 307.836 52.949,311.861 56.700,321.916 66.694 L 335.419 80.115 344.344 93.499 C 353.489 107.213,356.363 112.266,358.138 117.749 C 358.695 119.469,359.886 122.461,360.784 124.396 C 362.799 128.739,368.053 144.598,368.615 148.033 C 368.842 149.422,369.384 151.573,369.820 152.813 C 370.347 154.312,370.724 156.732,370.945 160.038 C 371.209 163.972,371.501 165.608,372.345 167.878 L 373.412 170.746 373.417 187.189 L 373.423 203.633 372.324 206.883 C 371.383 209.670,371.184 211.007,370.932 216.252 C 370.706 220.942,370.449 222.898,369.833 224.625 C 369.390 225.865,368.842 228.016,368.615 229.405 C 366.965 239.499,356.319 266.371,350.874 274.187 C 349.775 275.765,347.977 278.788,346.878 280.906 C 345.742 283.096,343.883 285.899,342.569 287.407 C 341.297 288.865,339.309 291.520,338.151 293.308 C 336.793 295.402,334.045 298.598,330.424 302.294 C 327.332 305.449,324.231 308.842,323.531 309.834 C 322.832 310.827,321.209 312.453,319.925 313.448 C 318.641 314.443,314.924 317.853,311.663 321.025 C 307.912 324.675,304.753 327.389,303.059 328.416 C 300.145 330.183,295.688 333.155,291.778 335.939 C 288.298 338.417,266.468 349.319,262.211 350.705 C 260.280 351.334,257.033 352.625,254.997 353.575 C 252.695 354.648,249.946 355.574,247.731 356.022 C 245.772 356.419,243.424 357.009,242.515 357.332 C 241.606 357.656,239.404 358.194,237.623 358.528 C 235.842 358.861,233.402 359.484,232.202 359.911 C 230.758 360.424,228.362 360.795,225.125 361.007 C 221.355 361.253,219.510 361.574,217.094 362.403 L 213.958 363.480 197.323 363.475 L 180.688 363.470 177.820 362.398 C 175.311 361.461,174.162 361.288,168.642 361.016 C 163.657 360.771,161.917 360.539,160.351 359.910 C 159.260 359.472,157.195 358.924,155.762 358.693 C 142.429 356.540,112.614 343.866,98.366 334.295 C 94.708 331.838,90.483 329.070,88.975 328.144 C 86.840 326.833,82.963 323.190,71.470 311.700 L 56.707 296.941 47.704 283.365 C 38.007 268.742,36.364 265.829,34.250 259.510 C 33.495 257.253,32.338 254.341,31.678 253.038 C 30.091 249.900,27.292 241.508,26.578 237.743 C 26.264 236.087,25.045 231.865,23.870 228.361 C 21.747 222.030,21.731 221.948,21.437 215.870 C 21.192 210.788,20.970 209.241,20.131 206.739 L 19.120 203.726 19.120 188.719 L 19.120 173.711 20.131 170.699 C 20.970 168.197,21.192 166.650,21.437 161.568 C 21.731 155.489,21.747 155.408,23.870 149.077 C 25.045 145.573,26.264 141.351,26.578 139.695 C 27.467 135.011,30.238 127.256,32.975 121.797 C 34.346 119.063,36.129 114.849,36.938 112.434 C 38.526 107.687,48.965 91.163,53.531 86.167 C 54.590 85.009,56.168 82.829,57.039 81.323 C 59.409 77.226,81.729 54.908,86.515 51.850 C 88.352 50.676,90.763 48.894,91.872 47.889 C 100.454 40.118,120.976 29.717,140.153 23.420 C 147.304 21.072,154.015 19.035,155.067 18.893 C 156.119 18.751,158.184 18.215,159.656 17.701 C 161.831 16.943,163.516 16.706,168.642 16.441 C 173.490 16.189,175.484 15.925,177.247 15.298 C 181.189 13.896,182.233 13.824,197.132 13.920 L 211.663 14.013 214.723 15.079 M179.652 21.817 C 178.871 22.007,177.157 22.524,175.842 22.967 C 174.265 23.498,171.821 23.875,168.657 24.074 C 165.366 24.281,163.143 24.633,161.568 25.195 C 160.306 25.645,157.846 26.282,156.102 26.609 C 154.358 26.936,151.999 27.524,150.860 27.916 C 149.721 28.308,147.291 28.909,145.459 29.252 C 143.346 29.648,140.650 30.547,138.082 31.713 C 135.856 32.723,132.638 34.009,130.932 34.571 C 126.429 36.053,115.960 41.304,111.090 44.523 C 108.776 46.051,105.329 48.114,103.430 49.105 C 101.531 50.096,98.778 51.941,97.312 53.204 C 95.846 54.467,93.011 56.596,91.013 57.934 C 85.494 61.632,63.456 83.859,59.922 89.293 C 58.554 91.396,57.014 93.719,56.500 94.455 C 46.047 109.436,33.858 136.036,31.706 148.566 C 31.453 150.038,30.832 152.447,30.326 153.920 C 29.670 155.825,29.306 158.030,29.061 161.568 C 28.796 165.384,28.468 167.250,27.648 169.598 L 26.580 172.658 26.580 188.719 L 26.580 204.780 27.648 207.839 C 28.468 210.188,28.796 212.053,29.061 215.870 C 29.306 219.408,29.670 221.613,30.326 223.518 C 30.832 224.990,31.453 227.400,31.706 228.872 C 33.859 241.407,45.899 267.690,56.494 282.983 C 57.004 283.719,58.686 286.214,60.231 288.528 C 62.701 292.225,64.701 294.388,76.740 306.382 L 90.440 320.029 100.000 326.400 C 117.127 337.813,140.195 348.342,153.595 350.863 C 155.309 351.185,157.718 351.807,158.949 352.245 C 160.643 352.848,162.670 353.115,167.304 353.347 C 172.503 353.606,173.911 353.816,176.673 354.742 L 179.924 355.832 196.367 355.832 L 212.811 355.832 215.870 354.755 C 218.499 353.830,219.790 353.637,225.048 353.380 C 229.816 353.148,231.673 352.899,233.461 352.253 C 234.723 351.797,237.157 351.161,238.871 350.840 C 248.682 349.000,276.519 337.251,285.086 331.334 C 290.311 327.725,297.476 322.970,298.990 322.107 C 301.934 320.430,329.306 292.997,331.733 289.293 C 332.835 287.610,334.939 284.814,336.408 283.080 C 338.020 281.176,339.929 278.296,341.224 275.814 C 342.403 273.552,344.241 270.497,345.307 269.025 C 349.492 263.245,359.213 238.174,360.622 229.524 C 360.838 228.200,361.448 225.791,361.979 224.170 C 362.662 222.084,363.037 219.826,363.263 216.436 C 363.506 212.790,363.844 210.875,364.678 208.405 L 365.774 205.163 365.774 188.719 L 365.774 172.275 364.678 169.033 C 363.844 166.563,363.506 164.648,363.263 161.002 C 363.037 157.612,362.662 155.354,361.979 153.268 C 361.448 151.647,360.839 149.238,360.625 147.914 C 360.118 144.776,354.525 128.152,352.846 124.790 C 352.129 123.354,351.065 120.717,350.483 118.929 C 349.190 114.958,347.341 111.165,345.402 108.502 C 344.601 107.402,340.738 101.683,336.818 95.793 L 329.692 85.086 316.758 72.232 C 307.101 62.635,303.097 58.916,300.956 57.552 C 299.379 56.548,297.055 54.825,295.793 53.725 C 294.532 52.624,292.294 50.941,290.822 49.985 C 289.350 49.029,287.113 47.526,285.851 46.647 C 282.541 44.339,265.169 35.729,261.257 34.457 C 259.430 33.863,256.183 32.573,254.042 31.590 C 251.443 30.396,248.902 29.561,246.394 29.077 C 244.329 28.678,241.901 28.087,241.000 27.764 C 240.098 27.440,238.033 26.921,236.411 26.609 C 234.788 26.298,232.428 25.678,231.166 25.232 C 229.637 24.691,227.250 24.309,224.007 24.085 C 220.356 23.833,218.352 23.483,215.976 22.683 L 212.811 21.617 196.941 21.545 C 188.212 21.505,180.432 21.627,179.652 21.817 M215.105 24.602 C 217.429 25.404,219.359 25.740,223.136 26.001 C 226.735 26.251,228.871 26.608,230.876 27.298 C 232.399 27.822,234.464 28.371,235.465 28.519 C 236.466 28.667,238.662 29.202,240.344 29.708 C 242.027 30.214,244.780 30.890,246.463 31.211 C 248.199 31.542,251.176 32.542,253.346 33.524 C 255.449 34.475,258.651 35.740,260.460 36.335 C 268.805 39.079,288.927 50.289,294.646 55.380 C 295.698 56.317,298.107 58.114,300.000 59.374 C 302.675 61.155,306.153 64.360,315.606 73.758 L 327.771 85.851 337.047 99.809 C 342.148 107.486,346.544 114.283,346.816 114.914 C 347.087 115.545,347.906 117.769,348.636 119.856 C 349.365 121.943,350.528 124.783,351.219 126.166 C 352.813 129.354,358.047 145.246,358.890 149.459 C 359.241 151.212,359.871 153.621,360.291 154.813 C 360.784 156.215,361.162 158.668,361.362 161.767 C 361.598 165.431,361.927 167.315,362.764 169.797 L 363.857 173.040 363.857 188.719 L 363.857 204.398 362.764 207.640 C 361.927 210.123,361.598 212.006,361.362 215.671 C 361.162 218.770,360.784 221.223,360.291 222.625 C 359.871 223.816,359.242 226.226,358.892 227.979 C 356.713 238.892,348.256 261.031,343.722 267.686 C 342.361 269.685,340.344 273.052,339.240 275.170 C 338.123 277.312,336.210 280.197,334.928 281.671 C 333.662 283.129,331.536 285.956,330.204 287.954 C 328.205 290.955,325.432 293.923,314.274 305.013 L 300.765 318.438 291.435 324.638 C 274.446 335.927,251.360 346.442,238.106 348.928 C 236.392 349.249,233.958 349.882,232.696 350.335 C 230.919 350.972,229.021 351.225,224.283 351.457 C 219.012 351.714,217.741 351.906,215.105 352.838 L 212.046 353.920 196.367 353.920 L 180.688 353.920 177.438 352.821 C 174.651 351.880,173.314 351.681,168.069 351.429 C 163.382 351.203,161.423 350.946,159.699 350.331 C 158.460 349.889,156.005 349.257,154.243 348.926 C 141.010 346.447,118.262 336.087,101.147 324.746 L 91.587 318.411 77.980 304.808 L 64.373 291.205 58.161 281.869 C 46.933 264.998,35.732 240.522,33.646 228.298 C 33.412 226.931,32.796 224.453,32.277 222.790 C 31.634 220.731,31.259 218.416,31.100 215.524 C 30.932 212.471,30.560 210.276,29.774 207.697 L 28.681 204.112 28.681 188.719 L 28.681 173.325 29.774 169.741 C 30.560 167.162,30.932 164.966,31.100 161.913 C 31.259 159.022,31.634 156.707,32.277 154.648 C 32.796 152.985,33.412 150.507,33.646 149.140 C 35.733 136.913,46.934 112.436,58.162 95.568 L 64.375 86.233 76.643 73.937 C 86.587 63.969,89.533 61.243,92.199 59.536 C 94.007 58.378,96.675 56.377,98.126 55.088 C 99.677 53.711,102.262 51.976,104.398 50.879 C 106.396 49.852,109.751 47.859,111.855 46.451 C 116.828 43.121,126.329 38.377,132.122 36.330 C 134.646 35.438,137.905 34.108,139.364 33.375 C 141.029 32.537,143.592 31.710,146.248 31.153 C 148.574 30.665,151.193 30.009,152.066 29.695 C 152.939 29.380,155.090 28.854,156.846 28.525 C 158.602 28.196,161.071 27.561,162.333 27.115 C 163.890 26.565,166.163 26.207,169.407 26.003 C 172.674 25.798,174.974 25.435,176.673 24.856 C 180.749 23.468,181.971 23.386,197.323 23.468 L 212.046 23.547 215.105 24.602 M128.497 98.176 C 124.729 100.092,124.983 93.434,125.122 186.424 L 125.239 265.201 126.080 266.773 C 127.794 269.976,125.359 269.774,163.862 269.907 C 199.737 270.030,207.440 269.804,213.767 268.438 C 215.765 268.006,218.862 267.422,220.650 267.139 C 228.745 265.857,239.344 261.872,247.645 256.988 C 276.660 239.920,290.698 207.902,286.799 167.686 C 284.288 141.796,271.262 119.564,253.603 111.032 C 251.221 109.881,248.327 108.335,247.173 107.597 C 242.455 104.579,230.167 100.658,222.753 99.805 C 220.860 99.587,217.419 99.038,215.105 98.584 C 209.057 97.396,130.755 97.028,128.497 98.176 M207.160 100.355 C 210.057 100.866,213.265 101.473,214.289 101.705 C 215.312 101.937,218.065 102.231,220.407 102.358 C 223.493 102.526,225.335 102.839,227.096 103.492 C 228.434 103.988,231.101 104.763,233.024 105.213 C 237.699 106.307,242.378 108.135,245.996 110.282 C 247.633 111.252,250.042 112.581,251.350 113.235 C 263.939 119.523,275.716 136.052,280.279 153.835 C 285.276 173.313,284.920 190.733,279.113 210.899 C 272.540 233.722,253.844 253.785,233.078 260.300 C 230.765 261.026,227.323 262.189,225.430 262.883 C 222.935 263.799,221.031 264.215,218.506 264.396 C 216.509 264.540,212.453 265.295,208.996 266.166 L 202.968 267.686 167.124 267.686 C 129.136 267.686,129.492 267.703,128.228 265.841 C 127.532 264.816,126.864 108.116,127.536 103.380 C 128.124 99.229,125.010 99.540,166.624 99.478 L 201.891 99.426 207.160 100.355 M177.867 137.271 C 176.342 137.648,174.920 138.648,173.829 140.109 C 172.922 141.323,172.355 222.367,173.230 225.616 C 173.710 227.400,175.738 229.277,177.720 229.774 C 181.087 230.616,200.398 230.631,202.677 229.792 C 203.834 229.366,206.030 228.599,207.557 228.088 C 221.174 223.526,232.122 209.148,233.269 194.318 C 233.474 191.659,233.897 188.365,234.207 186.998 C 234.941 183.771,234.942 178.945,234.210 176.291 C 233.891 175.134,233.389 172.294,233.096 169.981 C 231.391 156.548,219.548 142.794,205.736 138.207 L 202.486 137.128 190.822 137.040 C 184.407 136.991,178.578 137.096,177.867 137.271 M198.219 139.208 C 215.810 141.751,228.216 153.912,231.564 171.893 C 233.179 180.566,232.958 187.566,230.737 198.088 C 227.665 212.639,215.539 224.549,200.382 227.902 C 196.904 228.672,179.138 228.305,177.537 227.430 C 174.746 225.905,174.952 229.395,174.952 183.573 L 174.952 142.447 175.819 141.232 C 176.635 140.088,177.909 139.449,180.115 139.079 C 182.090 138.748,195.706 138.845,198.219 139.208 " stroke="none" fill="#be8c4c" fill-rule="evenodd"></path></g></svg>